<?xml version="1.0" encoding="utf-8"?>
<!-- Generator: Adobe Illustrator 17.0.0, SVG Export Plug-In . SVG Version: 6.00 Build 0)  -->
<!DOCTYPE svg PUBLIC "-//W3C//DTD SVG 1.1//EN" "http://www.w3.org/Graphics/SVG/1.1/DTD/svg11.dtd">
<svg version="1.1" id="Layer_1" xmlns="http://www.w3.org/2000/svg" xmlns:xlink="http://www.w3.org/1999/xlink" x="0px" y="0px"
	 width="32px" height="32px" viewBox="0 0 32 32" enable-background="new 0 0 32 32" xml:space="preserve">
<path id="_x31_62-high_volume" d="M19.701,10.299c-0.359-0.275-0.874-0.204-1.146,0.156c-0.276,0.361-0.205,0.874,0.154,1.147
	c1.092,0.822,1.929,2.522,1.923,4.515c0.008,2.218-1.032,4.061-2.293,4.759c-0.395,0.222-0.533,0.724-0.311,1.118
	c0.151,0.265,0.429,0.414,0.714,0.414c0.137,0,0.276-0.034,0.404-0.105c1.922-1.107,3.117-3.485,3.125-6.185
	C22.266,13.684,21.292,11.523,19.701,10.299z M25.703,2.723c-0.36-0.274-0.873-0.205-1.148,0.154
	c-0.274,0.36-0.206,0.874,0.157,1.148H24.71c3.003,2.277,5.129,6.727,5.124,11.873c0.006,5.722-2.625,10.575-6.155,12.556
	c-0.396,0.222-0.534,0.723-0.311,1.116c0.151,0.268,0.43,0.414,0.716,0.414c0.136,0,0.275-0.032,0.403-0.103
	c4.188-2.392,6.977-7.778,6.985-13.983C31.466,10.311,29.205,5.401,25.703,2.723z M26.817,16.02
	c-0.005-3.84-1.552-7.227-3.996-9.099c-0.359-0.276-0.874-0.204-1.147,0.156C21.4,7.436,21.47,7.951,21.83,8.225V8.223
	c1.944,1.47,3.355,4.399,3.351,7.797c0.006,3.781-1.744,6.964-4.017,8.235c-0.395,0.223-0.533,0.722-0.31,1.117
	c0.151,0.266,0.43,0.416,0.715,0.416c0.137,0,0.276-0.034,0.403-0.105C24.905,24.003,26.811,20.284,26.817,16.02z M-1.82,10.542
	V22.73h7.406l10.544,8.787v-30L5.46,10.554L-1.82,10.542z"/>
</svg>
